# xmcd
#
# Track frame offsets:
#	150
#	18469
#	35560
#	49985
#	72561
#	87045
#	110736
#	132744
#	151635
#	176031
#	190335
#	209354
#	227467
#	252929
#	273298
#	288348
#
# Disc length: 4246 seconds
#
# Revision: 2
# Processed by: cddbd v1.5.2PL0 Copyright (c) Steve Scherf et al.
# Submitted via: EasyCDDAExtractor 11.1.0.1
#
DISCID=e9109410
DTITLE=Paul Thorn - So Far So Good, Live
DYEAR=2005
DGENRE=Singer/Songwriter
TTITLE0=Heart With 4 Wheel Drive
TTITLE1=Lover's Vacation
TTITLE2=Burn Down The Trailer Park
TTITLE3=Every Little Bit Hurts
TTITLE4=That's All I Know, Right Now
TTITLE5=Mood Ring
TTITLE6=That's A Lie
TTITLE7=A Lot Of Good Reasons
TTITLE8=I Have A Good Day
TTITLE9=I'd Rather Be A Hammer Than A Nail
TTITLE10=Rise Up
TTITLE11=High
TTITLE12=Ain't Love Strange
TTITLE13=Mission Temple Fireworks Stand
TTITLE14=There's Something Out There
TTITLE15=Will The Circle Be Unbroken
EXTD=
EXTT0=
EXTT1=
EXTT2=
EXTT3=
EXTT4=
EXTT5=
EXTT6=
EXTT7=
EXTT8=
EXTT9=
EXTT10=
EXTT11=
EXTT12=
EXTT13=
EXTT14=
EXTT15=
PLAYORDER=
